<svg xmlns="http://www.w3.org/2000/svg" xmlns:xlink="http://www.w3.org/1999/xlink"> 
<symbol viewBox="0 0 24 24" id="heart"> 
  <title>Heart</title> 
    <path fill="#E86C60" d="M17,0c-1.9,0-3.7,0.8-5,2.1C10.7,0.8,8.9,0,7,0C3.1,0,0,3.1,0,7c0,6.4,10.9,15.4,11.4,15.8 c0.2,0.2,0.4,0.2,0.6,0.2s0.4-0.1,0.6-0.2C13.1,22.4,24,13.4,24,7C24,3.1,20.9,0,17,0z">
  </path> 
  </symbol> 
<symbol viewBox="0 0 32 32" id="arrow"> 
  <title>Arrow</title> 
    <path fill="#0f0f0f" d="M16,0C7.2,0,0,7.2,0,16s7.2,16,16,16s16-7.2,16-16S24.8,0,16,0z M22.8,13.6l-6,8C16.6,21.9,16.3,22,16,22 s-0.6-0.1-0.8-0.4l-6-8c-0.2-0.3-0.3-0.7-0.1-1S9.6,12,10,12h12c0.4,0,0.7,0.2,0.9,0.6S23,13.3,22.8,13.6z">
  </path>
  </symbol> 
<symbol viewBox="0 0 12 28" id="s-arr-t">
    <polygon points="1.1,7.3 5.3,2.9 5.3,28 6.7,28 6.7,2.9 10.9,7.3 11.9,6.4 6,0 0.1,6.4"></polygon>
    </symbol>
<symbol viewBox="0 0 28 12" id="s-arr-r">
  <polygon points="20.7,1.1 25.1,5.3 0,5.3 0,6.7 25.1,6.7 20.7,10.9 21.6,11.9 28,6 21.6,0.1">
  </polygon>
</symbol>
<symbol viewBox="0 0 12 28" id="s-arr-b">
  <polygon points="10.9,20.7 6.7,25.1 6.7,0 5.3,0 5.3,25.1 1.1,20.7 0.1,21.6 6,28 11.9,21.6">
  </polygon>
</symbol>
<symbol viewBox="0 0 28 12" id="s-arr-l">
  <polygon points="7.3,10.9 2.9,6.7 28,6.7 28,5.3 2.9,5.3 7.3,1.1 6.4,0.1 0,6 6.4,11.9">
  </polygon>
</symbol>
</svg>