<svg xmlns="http://www.w3.org/2000/svg" xmlns:xlink="http://www.w3.org/1999/xlink"> 
<symbol viewBox="0 0 24 24" id="heart"> 
  <title>Heart</title> 
    <path fill="#E86C60" d="M17,0c-1.9,0-3.7,0.8-5,2.1C10.7,0.8,8.9,0,7,0C3.1,0,0,3.1,0,7c0,6.4,10.9,15.4,11.4,15.8 c0.2,0.2,0.4,0.2,0.6,0.2s0.4-0.1,0.6-0.2C13.1,22.4,24,13.4,24,7C24,3.1,20.9,0,17,0z">
  </path> 
  </symbol> 
<symbol viewBox="0 0 32 32" id="arrow"> 
  <title>Arrow</title> 
    <path fill="#0f0f0f" d="M16,0C7.2,0,0,7.2,0,16s7.2,16,16,16s16-7.2,16-16S24.8,0,16,0z M22.8,13.6l-6,8C16.6,21.9,16.3,22,16,22 s-0.6-0.1-0.8-0.4l-6-8c-0.2-0.3-0.3-0.7-0.1-1S9.6,12,10,12h12c0.4,0,0.7,0.2,0.9,0.6S23,13.3,22.8,13.6z">
  </path>
  </symbol> 
<symbol viewBox="0 0 12 28" id="s-arr-t">
    <polygon points="1.1,7.3 5.3,2.9 5.3,28 6.7,28 6.7,2.9 10.9,7.3 11.9,6.4 6,0 0.1,6.4"></polygon>
    </symbol>
<symbol viewBox="0 0 28 12" id="s-arr-r">
  <polygon points="20.7,1.1 25.1,5.3 0,5.3 0,6.7 25.1,6.7 20.7,10.9 21.6,11.9 28,6 21.6,0.1">
  </polygon>
</symbol>
<symbol viewBox="0 0 12 28" id="s-arr-b">
  <polygon points="10.9,20.7 6.7,25.1 6.7,0 5.3,0 5.3,25.1 1.1,20.7 0.1,21.6 6,28 11.9,21.6">
  </polygon>
</symbol>
<symbol viewBox="0 0 28 12" id="s-arr-l">
  <polygon points="7.3,10.9 2.9,6.7 28,6.7 28,5.3 2.9,5.3 7.3,1.1 6.4,0.1 0,6 6.4,11.9">
  </polygon>
</symbol>
<symbol viewBox="0 0 28 12" id="s-diamond">
  <path fill-rule="evenodd"  fill="rgb(249, 190, 0)"
  d="M40.198,20.563 L20.200,40.578 L0.201,20.563 L20.200,0.548 L40.198,20.563 Z"/>
</symbol>

<symbol viewBox="0 0 118 111" id="br-advantage">
<g>
	<polyline fill="none" stroke="#333333" stroke-width="10" stroke-miterlimit="10" points="211.138,108.374 211.138,266.717 
		121.164,266.717 121.164,178.454 121.164,118.119 121.164,108.374 	"/>
	<path fill="none" stroke="#333333" stroke-width="10" stroke-miterlimit="10" d="M121.164,109.729
		c0-9.922,20.142-17.965,44.987-17.965c24.845,0,44.987,8.043,44.987,17.965"/>
	<path fill="none" stroke="#333333" stroke-width="10" stroke-miterlimit="10" d="M192.14,130.316"/>
	
		<line fill="none" stroke="#333333" stroke-width="10" stroke-miterlimit="10" x1="228.734" y1="266.717" x2="176.988" y2="266.717"/>
	<path fill="none" stroke="#333333" stroke-width="10" stroke-miterlimit="10" d="M269.646,266.717"/>
	
		<line fill="none" stroke="#333333" stroke-width="10" stroke-miterlimit="10" x1="254.494" y1="130.316" x2="254.494" y2="205.343"/>
	<path fill="none" stroke="#333333" stroke-width="10" stroke-miterlimit="10" d="M217.888,116.009
		c20.217,0,36.606,6.928,36.606,15.475"/>
	<path fill="none" stroke="#333333" stroke-width="10" stroke-miterlimit="10" d="M262.144,148.523
		c20.217,0,36.606,6.928,36.606,15.475"/>
	<path fill="none" stroke="#333333" stroke-width="10" stroke-miterlimit="10" d="M195.984,118.168"/>
	<path fill="none" stroke="#333333" stroke-width="10" stroke-miterlimit="10" d="M192.14,131.483"/>
	<polyline fill="none" stroke="#333333" stroke-width="10" stroke-miterlimit="10" points="155.537,266.717 78.031,266.717 
		78.031,130.316 	"/>
	<path fill="none" stroke="#333333" stroke-width="10" stroke-miterlimit="10" d="M140.384,130.316"/>
	<path fill="none" stroke="#333333" stroke-width="10" stroke-miterlimit="10" d="M140.384,131.483"/>
	<path fill="none" stroke="#333333" stroke-width="10" stroke-miterlimit="10" d="M136.314,118.115"/>
	<path fill="none" stroke="#333333" stroke-width="10" stroke-miterlimit="10" d="M78.031,131.483
		c0-8.547,16.05-15.475,35.849-15.475"/>
	<path fill="none" stroke="#333333" stroke-width="10" stroke-miterlimit="10" d="M35.354,163.649
		c0-8.547,16.05-15.476,35.849-15.476"/>
	<polyline fill="none" stroke="#333333" stroke-width="10" stroke-miterlimit="10" points="93.92,266.717 35.354,266.717 
		35.354,163.649 	"/>
	<line fill="none" stroke="#333333" stroke-width="10" stroke-miterlimit="10" x1="298.75" y1="204.899" x2="298.75" y2="163.206"/>
	<path fill="#333333" d="M241.488,270.404c-3.814,0-6.804-3.769-6.804-8.578v-40.871c0-4.809,2.989-8.576,6.804-8.576h9.807
		c3.816,0,6.806,3.768,6.806,8.576v42.731h-6.611v-42.731c0-1.015-0.32-1.697-0.521-1.969h-9.152
		c-0.202,0.271-0.52,0.954-0.52,1.969v40.871c0,1.016,0.319,1.698,0.52,1.97h59.349c2.547,0,4.85-1.669,5.731-4.152l11.982-33.782
		c0.25-0.706,0.376-1.443,0.375-2.191c0-3.501-2.74-6.348-6.108-6.348H292.25v0.104h-6.613v-19.562
		c0-6.426-3.139-10.965-6.076-13.07c-1.472-1.056-2.999-1.613-4.417-1.613c-0.524,0-1.025,0.079-1.488,0.235
		c-1.427,0.481-1.048,7.645-0.887,10.704c0.321,6.056,0.653,12.311-2.074,16.471c-2.056,3.141-5.588,5.446-10.497,6.85l-1.457,0.417
		l-1.816-6.355l1.455-0.417c3.34-0.957,5.623-2.342,6.789-4.116c1.54-2.351,1.241-7.975,1.002-12.495
		c-0.396-7.485-0.806-15.22,5.372-17.314c1.148-0.387,2.361-0.582,3.606-0.582c2.813,0,5.673,0.985,8.271,2.85
		c5.45,3.907,8.836,10.975,8.836,18.443v12.833h20.889c7.014,0,12.72,5.811,12.72,12.953c0,1.508-0.255,2.99-0.759,4.406
		l-11.979,33.784c-1.813,5.117-6.621,8.557-11.962,8.557H241.488z"/>
</g>
</symbol>
<symbol viewBox="0 0 24 24" id="cht-one">
<g>
<text x="12" y="12" text-anchor="middle" dominant-baseline="central" fill="currentColor" font-size="50%">壹</text>
<path d="M6.32677 2.77363C6.43395 2.58799 6.63202 2.47363 6.84638 2.47363L17.1536 2.47363C17.3679 2.47363 17.566 2.58799 17.6732 2.77363L22.8268 11.6999C22.9339 11.8856 22.9339 12.1143 22.8268 12.2999L17.6732 21.2262C17.566 21.4118 17.3679 21.5262 17.1536 21.5262L6.84638 21.5262C6.63202 21.5262 6.43395 21.4118 6.32677 21.2262L1.17318 12.2999C1.066 12.1143 1.066 11.8856 1.17318 11.6999L6.32677 2.77363Z" fill="none" stroke="currentColor" stroke-width="0.5" />
</g>
</symbol>
<symbol viewBox="0 0 24 24" id="cht-two">
<text x="12" y="12" text-anchor="middle" dominant-baseline="central" fill="currentColor" font-size="50%">贰</text>
<path d="M6.32677 2.77363C6.43395 2.58799 6.63202 2.47363 6.84638 2.47363L17.1536 2.47363C17.3679 2.47363 17.566 2.58799 17.6732 2.77363L22.8268 11.6999C22.9339 11.8856 22.9339 12.1143 22.8268 12.2999L17.6732 21.2262C17.566 21.4118 17.3679 21.5262 17.1536 21.5262L6.84638 21.5262C6.63202 21.5262 6.43395 21.4118 6.32677 21.2262L1.17318 12.2999C1.066 12.1143 1.066 11.8856 1.17318 11.6999L6.32677 2.77363Z" fill="none" stroke="currentColor" stroke-width="0.5" />
</symbol>
<symbol viewBox="0 0 24 24" id="cht-three">
<g>
<text x="12" y="12" text-anchor="middle" dominant-baseline="central" fill="currentColor" font-size="50%">叁</text>
<path d="M6.32677 2.77363C6.43395 2.58799 6.63202 2.47363 6.84638 2.47363L17.1536 2.47363C17.3679 2.47363 17.566 2.58799 17.6732 2.77363L22.8268 11.6999C22.9339 11.8856 22.9339 12.1143 22.8268 12.2999L17.6732 21.2262C17.566 21.4118 17.3679 21.5262 17.1536 21.5262L6.84638 21.5262C6.63202 21.5262 6.43395 21.4118 6.32677 21.2262L1.17318 12.2999C1.066 12.1143 1.066 11.8856 1.17318 11.6999L6.32677 2.77363Z" fill="none" stroke="currentColor" stroke-width="0.5" />
</g>
</symbol>
<symbol viewBox="0 0 24 24" id="hexagon">
<g>
<text x="12" y="12" text-anchor="middle" dominant-baseline="central" fill="currentColor" font-size="50%">壹</text>
<path d="M6.32677 2.77363C6.43395 2.58799 6.63202 2.47363 6.84638 2.47363L17.1536 2.47363C17.3679 2.47363 17.566 2.58799 17.6732 2.77363L22.8268 11.6999C22.9339 11.8856 22.9339 12.1143 22.8268 12.2999L17.6732 21.2262C17.566 21.4118 17.3679 21.5262 17.1536 21.5262L6.84638 21.5262C6.63202 21.5262 6.43395 21.4118 6.32677 21.2262L1.17318 12.2999C1.066 12.1143 1.066 11.8856 1.17318 11.6999L6.32677 2.77363Z" fill="none" stroke="currentColor" stroke-width="0.5" />
</g>
<symbol>
</svg>

