<?xml version="1.0" encoding="utf-8"?>
<!-- Generator: Adobe Illustrator 16.0.0, SVG Export Plug-In . SVG Version: 6.00 Build 0)  -->
<!DOCTYPE svg PUBLIC "-//W3C//DTD SVG 1.1//EN" "http://www.w3.org/Graphics/SVG/1.1/DTD/svg11.dtd">
<svg version="1.1" id="图层_1" xmlns="http://www.w3.org/2000/svg" xmlns:xlink="http://www.w3.org/1999/xlink" x="0px" y="0px"
	 width="1920px" height="1824.026px" viewBox="0 0 1920 1824.026" enable-background="new 0 0 1920 1824.026" xml:space="preserve">
<g>
	<polyline fill="none" stroke="#333333" stroke-width="10" stroke-miterlimit="10" points="211.138,108.374 211.138,266.717 
		121.164,266.717 121.164,178.454 121.164,118.119 121.164,108.374 	"/>
	<path fill="none" stroke="#333333" stroke-width="10" stroke-miterlimit="10" d="M121.164,109.729
		c0-9.922,20.142-17.965,44.987-17.965c24.845,0,44.987,8.043,44.987,17.965"/>
	<path fill="none" stroke="#333333" stroke-width="10" stroke-miterlimit="10" d="M192.14,130.316"/>
	
		<line fill="none" stroke="#333333" stroke-width="10" stroke-miterlimit="10" x1="228.734" y1="266.717" x2="176.988" y2="266.717"/>
	<path fill="none" stroke="#333333" stroke-width="10" stroke-miterlimit="10" d="M269.646,266.717"/>
	
		<line fill="none" stroke="#333333" stroke-width="10" stroke-miterlimit="10" x1="254.494" y1="130.316" x2="254.494" y2="205.343"/>
	<path fill="none" stroke="#333333" stroke-width="10" stroke-miterlimit="10" d="M217.888,116.009
		c20.217,0,36.606,6.928,36.606,15.475"/>
	<path fill="none" stroke="#333333" stroke-width="10" stroke-miterlimit="10" d="M262.144,148.523
		c20.217,0,36.606,6.928,36.606,15.475"/>
	<path fill="none" stroke="#333333" stroke-width="10" stroke-miterlimit="10" d="M195.984,118.168"/>
	<path fill="none" stroke="#333333" stroke-width="10" stroke-miterlimit="10" d="M192.14,131.483"/>
	<polyline fill="none" stroke="#333333" stroke-width="10" stroke-miterlimit="10" points="155.537,266.717 78.031,266.717 
		78.031,130.316 	"/>
	<path fill="none" stroke="#333333" stroke-width="10" stroke-miterlimit="10" d="M140.384,130.316"/>
	<path fill="none" stroke="#333333" stroke-width="10" stroke-miterlimit="10" d="M140.384,131.483"/>
	<path fill="none" stroke="#333333" stroke-width="10" stroke-miterlimit="10" d="M136.314,118.115"/>
	<path fill="none" stroke="#333333" stroke-width="10" stroke-miterlimit="10" d="M78.031,131.483
		c0-8.547,16.05-15.475,35.849-15.475"/>
	<path fill="none" stroke="#333333" stroke-width="10" stroke-miterlimit="10" d="M35.354,163.649
		c0-8.547,16.05-15.476,35.849-15.476"/>
	<polyline fill="none" stroke="#333333" stroke-width="10" stroke-miterlimit="10" points="93.92,266.717 35.354,266.717 
		35.354,163.649 	"/>
	<line fill="none" stroke="#333333" stroke-width="10" stroke-miterlimit="10" x1="298.75" y1="204.899" x2="298.75" y2="163.206"/>
	<path fill="#333333" d="M241.488,270.404c-3.814,0-6.804-3.769-6.804-8.578v-40.871c0-4.809,2.989-8.576,6.804-8.576h9.807
		c3.816,0,6.806,3.768,6.806,8.576v42.731h-6.611v-42.731c0-1.015-0.32-1.697-0.521-1.969h-9.152
		c-0.202,0.271-0.52,0.954-0.52,1.969v40.871c0,1.016,0.319,1.698,0.52,1.97h59.349c2.547,0,4.85-1.669,5.731-4.152l11.982-33.782
		c0.25-0.706,0.376-1.443,0.375-2.191c0-3.501-2.74-6.348-6.108-6.348H292.25v0.104h-6.613v-19.562
		c0-6.426-3.139-10.965-6.076-13.07c-1.472-1.056-2.999-1.613-4.417-1.613c-0.524,0-1.025,0.079-1.488,0.235
		c-1.427,0.481-1.048,7.645-0.887,10.704c0.321,6.056,0.653,12.311-2.074,16.471c-2.056,3.141-5.588,5.446-10.497,6.85l-1.457,0.417
		l-1.816-6.355l1.455-0.417c3.34-0.957,5.623-2.342,6.789-4.116c1.54-2.351,1.241-7.975,1.002-12.495
		c-0.396-7.485-0.806-15.22,5.372-17.314c1.148-0.387,2.361-0.582,3.606-0.582c2.813,0,5.673,0.985,8.271,2.85
		c5.45,3.907,8.836,10.975,8.836,18.443v12.833h20.889c7.014,0,12.72,5.811,12.72,12.953c0,1.508-0.255,2.99-0.759,4.406
		l-11.979,33.784c-1.813,5.117-6.621,8.557-11.962,8.557H241.488z"/>
</g>
<g>
	<path fill="none" stroke="#333333" stroke-width="10" stroke-miterlimit="10" d="M519.914,146.101"/>
	<g>
		<g>
			<path fill="none" stroke="#000000" stroke-width="10" stroke-miterlimit="10" d="M573.384,237.405c0,0,0,0.756-2.271,2.271
				c-12.112,12.114-29.53,19.685-48.456,19.685c-20.444,0-38.617-8.327-51.49-22.714c-2.278-3.027-2.278-5.298-2.278-9.083
				c0-3.786,3.038-11.358,7.592-11.358c6.057,0,8.328,9.843,12.114,9.843c3.785,0,11.357-9.086,16.654-9.086
				c6.816,0,9.844,10.599,14.388,10.599c3.786,0,9.086-11.357,15.898-11.357c5.302,0,11.357,9.842,14.388,9.842
				s11.357-9.842,15.144-9.842c4.541,0,10.602,6.814,10.602,10.598C576.414,233.62,573.384,237.405,573.384,237.405L573.384,237.405
				z M512.813,196.339c0-5.301,9.088-19.685,9.088-19.685s9.087,15.144,9.087,19.685c0,5.3-4.543,9.087-9.087,9.087
				C516.598,205.426,512.813,200.885,512.813,196.339L512.813,196.339z M573.384,148.643"/>
		</g>
		<path fill="none" stroke="#333333" stroke-width="10" stroke-miterlimit="10" d="M514.121,137.547v-9.441
			c0-1.931,1.565-3.496,3.497-3.496h59.793c1.932,0,3.497,1.565,3.497,3.496v9.441c0,1.931-1.565,3.497-3.497,3.497h-50.31"/>
		<path fill="none" stroke="#333333" stroke-width="10" stroke-miterlimit="10" d="M530.556,141.066v18.844
			c0,1.078-1.564,1.951-3.497,1.951h-9.44c-1.931,0-3.497-0.873-3.497-1.951V126.56c0-1.077,1.566-1.95,3.497-1.95h9.44"/>
	</g>
	<circle fill="none" stroke="#333333" stroke-width="10" stroke-miterlimit="10" cx="524.899" cy="184.053" r="94.919"/>
	
		<line fill="none" stroke="#333333" stroke-width="10" stroke-miterlimit="10" x1="465.937" y1="109.668" x2="591.258" y2="251.913"/>
</g>
<g>
	<g>
		<path fill="none" stroke="#333333" stroke-width="10" stroke-linecap="round" stroke-linejoin="round" stroke-miterlimit="10" d="
			M867.49,283.516l-99.314-112.015l37.012-48.731h124.987l36.957,48.731L867.49,283.516z M774.826,171.229"/>
		<path fill="#333333" d="M940.874,168.605c-4.633,0-15.589,1.144-21.53,7.141c-5.941,5.996-7.087,18.15-7.194,22.24
			c0-4.197-0.818-16.354-7.305-23.004c-6.485-6.649-17.226-6.486-21.804-6.432c7.491-0.117,14.734-2.704,20.604-7.358
			c7.414-7.414,8.286-21.804,8.342-23.275c0,1.689-0.383,16.352,6.922,23.82c5.939,5.996,17.116,6.813,21.804,6.868H940.874z
			 M904.572,78.065c-0.352,5.514,1.207,10.981,4.415,15.48c4.521,3.208,10.003,4.766,15.535,4.415
			c-5.482-0.223-10.879,1.409-15.317,4.633c-3.226,4.439-4.856,9.836-4.633,15.317c0.236-5.652-1.436-11.218-4.742-15.807
			c-4.428-3.113-9.815-4.563-15.208-4.088c5.252,0.077,10.377-1.612,14.553-4.797c3.383-4.342,5.293-9.651,5.452-15.153H904.572z
			 M956.681,117.149c-0.267,3.758,0.774,7.493,2.944,10.575c3.072,2.189,6.81,3.246,10.576,2.997
			c-3.73-0.165-7.406,0.952-10.413,3.162c-2.211,3.008-3.326,6.682-3.161,10.411c0.21-3.895-0.926-7.744-3.216-10.901
			c-3.032-2.13-6.722-3.115-10.412-2.779c3.576,0.023,7.062-1.126,9.921-3.271c2.299-2.953,3.599-6.562,3.707-10.303
			L956.681,117.149z M956.681,117.149"/>
		<path d="M867.49,256.806"/>
	</g>
	
		<line fill="none" stroke="#333333" stroke-width="10" stroke-miterlimit="10" x1="944.27" y1="171.501" x2="967.131" y2="171.501"/>
	
		<line fill="none" stroke="#333333" stroke-width="10" stroke-miterlimit="10" x1="768.175" y1="171.501" x2="880.933" y2="171.501"/>
	<path fill="none" stroke="#333333" stroke-width="10" stroke-miterlimit="10" d="M821.9,171.501l45.59,112.015L821.9,171.501z"/>
	
		<line fill="none" stroke="#333333" stroke-width="10" stroke-miterlimit="10" x1="907.32" y1="186.054" x2="867.653" y2="283.516"/>
	<line fill="none" stroke="#333333" stroke-width="10" stroke-miterlimit="10" x1="858.911" y1="122.77" x2="821.9" y2="171.501"/>
	
		<line fill="none" stroke="#333333" stroke-width="10" stroke-miterlimit="10" x1="876.232" y1="122.77" x2="900.921" y2="155.278"/>
</g>
<g>
	<circle fill="#FFFFFF" cx="1213.477" cy="184.053" r="100.359"/>
	
		<text transform="matrix(1 0 0 1 1165.1543 244.1357)" fill="#FCB815" font-family="'SourceHanSansCN-Light-GBpc-EUC-H'" font-size="180.6473">+</text>
</g>
<g>
	<g>
		<defs>
			<rect id="SVGID_1_" x="1502.53" y="133.227" width="110.47" height="95.715"/>
		</defs>
		<clipPath id="SVGID_2_">
			<use xlink:href="#SVGID_1_"  overflow="visible"/>
		</clipPath>
		<path clip-path="url(#SVGID_2_)" d="M1511.237,170.304c-1.944-1.945-5.101-1.945-7.045,0c-0.98,0.964-1.463,2.244-1.463,3.523
			c0,1.279,0.482,2.542,1.463,3.522l50.149,50.134c1.944,1.945,5.102,1.945,7.046,0l50.133-50.134c1.945-1.943,1.945-5.102,0-7.045
			c-1.943-1.945-5.101-1.945-7.045,0l-46.61,46.611L1511.237,170.304z"/>
	</g>
</g>
<circle fill="none" stroke="#FCB814" stroke-width="2" stroke-miterlimit="10" cx="180.87" cy="527.177" r="12"/>
<g>
	<defs>
		<rect id="SVGID_3_" x="432.619" y="482.112" width="184.561" height="89.61"/>
	</defs>
	<clipPath id="SVGID_4_">
		<use xlink:href="#SVGID_3_"  overflow="visible"/>
	</clipPath>
	
		<line clip-path="url(#SVGID_4_)" fill="none" stroke="#000000" stroke-width="10" stroke-linecap="round" stroke-linejoin="round" stroke-miterlimit="10" x1="610.049" y1="526.916" x2="437.619" y2="526.916"/>
	
		<line clip-path="url(#SVGID_4_)" fill="none" stroke="#000000" stroke-width="10" stroke-linecap="round" stroke-linejoin="round" stroke-miterlimit="10" x1="612.18" y1="526.574" x2="575.331" y2="487.112"/>
	
		<line clip-path="url(#SVGID_4_)" fill="none" stroke="#000000" stroke-width="10" stroke-linecap="round" stroke-linejoin="round" stroke-miterlimit="10" x1="612.18" y1="527.261" x2="575.331" y2="566.723"/>
</g>
<g>
	<g>
		<g>
			<path fill="#F9BE00" stroke="#FFFFFF" stroke-miterlimit="10" d="M850.271,533.031c12.788-6.498,21.555-19.767,21.555-35.093
				c0-21.733-17.618-39.351-39.353-39.351c-21.731,0-39.349,17.618-39.349,39.351c0,15.326,8.767,28.595,21.553,35.093
				c-26.25,7.884-45.429,32.744-45.429,62.213h126.454C895.701,565.775,876.522,540.916,850.271,533.031z"/>
		</g>
	</g>
	<g>
		<g>
			<path fill="#F9BE00" stroke="#FFFFFF" stroke-miterlimit="10" d="M923.768,533.031c12.786-6.498,21.553-19.767,21.553-35.093
				c0-21.733-17.618-39.351-39.349-39.351c-21.734,0-39.352,17.618-39.352,39.351c0,15.326,8.767,28.595,21.554,35.093
				c-26.252,7.884-45.431,32.745-45.431,62.213h126.454C969.197,565.774,950.018,540.915,923.768,533.031z"/>
		</g>
	</g>
	<g>
		<g>
			<path fill="#F9BE00" stroke="#FFFFFF" stroke-width="5" stroke-miterlimit="10" d="M890.974,534.39
				c15.629-7.942,26.345-24.16,26.345-42.892c0-26.562-21.535-48.095-48.098-48.095c-26.562,0-48.095,21.533-48.095,48.095
				c0,18.731,10.715,34.95,26.343,42.892c-32.083,9.638-55.525,40.022-55.525,76.04H946.5
				C946.5,574.412,923.059,544.027,890.974,534.39z"/>
		</g>
	</g>
</g>
<path fill="#F9BE00" d="M1213.478,443.516c46.076,0,83.427,37.34,83.427,83.402c0,46.063-37.351,83.399-83.427,83.399
	c-46.079,0-83.429-37.336-83.429-83.399C1130.049,480.856,1167.398,443.516,1213.478,443.516L1213.478,443.516z M1199.5,490.522
	c-5.417,0-9.809,4.388-9.812,9.802v53.178c-0.004,3.697,2.073,7.081,5.372,8.753c3.297,1.678,7.257,1.354,10.237-0.827
	l37.139-27.175c2.553-1.863,4.053-4.846,4.022-8.01c-0.033-3.164-1.589-6.12-4.178-7.939l-37.16-26.01
	c-1.649-1.154-3.617-1.771-5.631-1.771H1199.5z M1199.5,490.522"/>
<path opacity="0.6" fill="#FFFFFF" d="M522.339,1135.181c46.076,0,83.427,37.34,83.427,83.402c0,46.063-37.351,83.399-83.427,83.399
	c-46.079,0-83.429-37.336-83.429-83.399C438.91,1172.521,476.26,1135.181,522.339,1135.181L522.339,1135.181z M508.361,1182.188
	c-5.417,0-9.809,4.388-9.812,9.802v53.178c-0.004,3.697,2.073,7.081,5.372,8.753c3.297,1.678,7.257,1.354,10.237-0.827
	l37.139-27.176c2.553-1.862,4.053-4.846,4.022-8.01c-0.033-3.164-1.589-6.119-4.178-7.938l-37.16-26.01
	c-1.649-1.153-3.617-1.771-5.631-1.771H508.361z M508.361,1182.188"/>
<g>
	
		<text transform="matrix(1 0 0 1 1511.7637 561.877)" fill="#F9BE00" font-family="'SourceHanSerifCN-Medium-GBpc-EUC-H'" font-size="92">壹</text>
	<polygon fill="none" stroke="#F9BE00" stroke-width="2" stroke-miterlimit="10" points="1492.264,640.916 1426.764,526.916 
		1492.264,412.916 1623.264,412.916 1688.764,526.916 1623.264,640.916 	"/>
</g>
<g>
	
		<text transform="matrix(1 0 0 1 1167.4756 907.71)" fill="#F9BE00" font-family="'SourceHanSerifCN-Medium-GBpc-EUC-H'" font-size="92">叁</text>
	<polygon fill="none" stroke="#F9BE00" stroke-width="2" stroke-miterlimit="10" points="1147.976,986.749 1082.476,872.749 
		1147.976,758.75 1278.976,758.75 1344.476,872.749 1278.976,986.749 	"/>
</g>
<g>
	
		<text transform="matrix(1 0 0 1 1511.7656 907.709)" fill="#FFFFFF" font-family="'SourceHanSerifCN-Medium-GBpc-EUC-H'" font-size="92">叁</text>
	<polygon fill="none" stroke="#FFFFFF" stroke-width="2" stroke-miterlimit="10" points="1492.266,986.748 1426.766,872.748 
		1492.266,758.748 1623.266,758.748 1688.766,872.748 1623.266,986.748 	"/>
</g>
<g>
	
		<text transform="matrix(1 0 0 1 821.6533 907.71)" fill="#FFFFFF" font-family="'SourceHanSerifCN-Medium-GBpc-EUC-H'" font-size="92">贰</text>
	<polygon fill="none" stroke="#FFFFFF" stroke-width="2" stroke-miterlimit="10" points="802.153,986.749 736.653,872.749 
		802.153,758.749 933.153,758.749 998.653,872.749 933.153,986.749 	"/>
</g>
<g>
	
		<text transform="matrix(1 0 0 1 476.3379 907.709)" fill="#F9BE00" font-family="'SourceHanSerifCN-Medium-GBpc-EUC-H'" font-size="92">贰</text>
	<polygon fill="none" stroke="#F9BE00" stroke-width="2" stroke-miterlimit="10" points="456.838,986.748 391.338,872.748 
		456.838,758.748 587.838,758.748 653.338,872.748 587.838,986.748 	"/>
</g>
<g>
	
		<text transform="matrix(1 0 0 1 134.8711 907.71)" fill="#FFFFFF" font-family="'SourceHanSerifCN-Medium-GBpc-EUC-H'" font-size="92">壹</text>
	<polygon fill="none" stroke="#FFFFFF" stroke-width="2" stroke-miterlimit="10" points="115.371,986.749 49.871,872.749 
		115.371,758.749 246.371,758.749 311.871,872.749 246.371,986.749 	"/>
</g>
<rect x="84.356" y="1122.067" transform="matrix(0.7071 0.7071 -0.7071 0.7071 914.643 229.0195)" fill="#F9BE00" width="193.029" height="193.03"/>
<g>
	<defs>
		<rect id="SVGID_5_" x="826.35" y="1169.101" width="85.744" height="98.962"/>
	</defs>
	<clipPath id="SVGID_6_">
		<use xlink:href="#SVGID_5_"  overflow="visible"/>
	</clipPath>
	<path clip-path="url(#SVGID_6_)" d="M837.124,1218.492l41.755-41.755c1.743-1.742,1.743-4.57,0-6.312
		c-1.741-1.741-4.57-1.741-6.311,0l-44.911,44.91c-1.742,1.742-1.742,4.57,0,6.313l44.911,44.925
		c0.878,0.879,2.01,1.311,3.155,1.311c1.147,0,2.293-0.432,3.156-1.311c1.743-1.741,1.743-4.569,0-6.311L837.124,1218.492z
		 M910.646,1260.247l-41.771-41.755l41.756-41.755c1.743-1.742,1.743-4.57,0-6.312c-1.742-1.741-4.57-1.741-6.312,0l-44.91,44.91
		c-1.742,1.742-1.742,4.57,0,6.313l44.91,44.925c0.879,0.879,2.01,1.311,3.156,1.311c1.147,0,2.293-0.432,3.156-1.311
		C912.387,1264.817,912.387,1262.004,910.646,1260.247"/>
</g>
<g>
	<defs>
		<rect id="SVGID_7_" x="1170.604" y="1169.136" width="85.744" height="98.962"/>
	</defs>
	<clipPath id="SVGID_8_">
		<use xlink:href="#SVGID_7_"  overflow="visible"/>
	</clipPath>
	<path clip-path="url(#SVGID_8_)" d="M1203.819,1260.298c-1.743,1.741-1.743,4.569,0,6.311c0.862,0.879,2.009,1.311,3.155,1.311
		c1.146,0,2.277-0.432,3.156-1.311l44.91-44.925c1.742-1.742,1.742-4.57,0-6.313l-44.91-44.91c-1.742-1.741-4.57-1.741-6.312,0
		c-1.743,1.741-1.743,4.569,0,6.312l41.755,41.755L1203.819,1260.298z M1172.053,1260.282c-1.742,1.757-1.742,4.57,0.015,6.326
		c0.862,0.879,2.009,1.311,3.155,1.311s2.277-0.432,3.156-1.311l44.91-44.925c1.742-1.742,1.742-4.57,0-6.313l-44.91-44.91
		c-1.742-1.741-4.57-1.741-6.312,0c-1.743,1.741-1.743,4.569,0,6.312l41.756,41.755L1172.053,1260.282"/>
</g>
<g>
	<defs>
		<rect id="SVGID_9_" x="134.116" y="1541.678" width="85.744" height="98.962"/>
	</defs>
	<clipPath id="SVGID_10_">
		<use xlink:href="#SVGID_9_"  overflow="visible"/>
	</clipPath>
	<path clip-path="url(#SVGID_10_)" d="M209.086,1591.069l-41.756-41.755c-1.742-1.742-1.742-4.57,0-6.312
		c1.741-1.742,4.57-1.742,6.313,0l44.91,44.91c1.742,1.742,1.742,4.57,0,6.313l-44.91,44.925c-0.879,0.879-2.01,1.311-3.156,1.311
		s-2.293-0.432-3.156-1.311c-1.742-1.741-1.742-4.569,0-6.31L209.086,1591.069z"/>
</g>
<g>
	<defs>
		<rect id="SVGID_11_" x="1531.141" y="1182.887" width="85.744" height="98.962"/>
	</defs>
	<clipPath id="SVGID_12_">
		<use xlink:href="#SVGID_11_"  overflow="visible"/>
	</clipPath>
	<path clip-path="url(#SVGID_12_)" d="M1541.914,1232.278l41.756-41.755c1.742-1.742,1.742-4.57,0-6.312
		c-1.741-1.742-4.57-1.742-6.313,0l-44.91,44.91c-1.742,1.742-1.742,4.57,0,6.313l44.91,44.925c0.879,0.879,2.01,1.311,3.156,1.311
		s2.293-0.432,3.156-1.311c1.742-1.741,1.742-4.569,0-6.31L1541.914,1232.278z"/>
</g>
</svg>
